<svg width="240" height="240" viewBox="0 0 120 120" fill="none" xmlns="http://www.w3.org/2000/svg">
  <defs>
    <linearGradient id="paint0_linear" x1="16" y1="14" x2="104" y2="108" gradientUnits="userSpaceOnUse">
      <stop stop-color="#38BDF8"/>
      <stop offset="0.5" stop-color="#3B82F6"/>
      <stop offset="1" stop-color="#6366F1"/>
    </linearGradient>
    <linearGradient id="paint1_linear" x1="20" y1="18" x2="98" y2="102" gradientUnits="userSpaceOnUse">
      <stop stop-color="white" stop-opacity="0.35"/>
      <stop offset="0.4" stop-color="white" stop-opacity="0.12"/>
      <stop offset="1" stop-color="white" stop-opacity="0"/>
    </linearGradient>
    <radialGradient id="paint2_radial" cx="0" cy="0" r="1" gradientUnits="userSpaceOnUse" gradientTransform="translate(90 20) rotate(130) scale(80)">
      <stop stop-color="white" stop-opacity="0.18"/>
      <stop offset="1" stop-color="white" stop-opacity="0"/>
    </radialGradient>
    <filter id="shadow" x="22" y="20" width="80" height="92" filterUnits="userSpaceOnUse" color-interpolation-filters="sRGB">
      <feDropShadow dx="0" dy="8" stdDeviation="8" flood-color="#1E3A8A" flood-opacity="0.35"/>
    </filter>
  </defs>

  <rect x="8" y="8" width="104" height="104" rx="26" fill="url(#paint0_linear)"/>
  <rect x="11" y="11" width="98" height="98" rx="23" fill="url(#paint1_linear)"/>
  <rect x="8" y="8" width="104" height="104" rx="26" fill="url(#paint2_radial)"/>
  <rect x="8.5" y="8.5" width="103" height="103" rx="25.5" stroke="white" stroke-opacity="0.15"/>

  <g filter="url(#shadow)">
    <path d="M48 32h24c3.3 0 6 2.7 6 6s-2.7 6-6 6H62v8h10c3.3 0 6 2.7 6 6s-2.7 6-6 6H62v16c0 3.3-2.7 6-6 6h-8V38c0-3.3 2.7-6 6-6Z" fill="white"/>
    <path d="M56 56h-6v-7c0-1.7 1.3-3 3-3h3v10Z" fill="#EFF6FF"/>
  </g>

  <circle cx="86" cy="30" r="6" fill="#A7F3D0" fill-opacity="0.9"/>
  <circle cx="30" cy="86" r="5" fill="#C084FC" fill-opacity="0.65"/>
</svg>
